# xmcd
#
# Track frame offsets:
#	150
#	43273
#	71276
#	92970
#	124824
#	162661
#	183330
#	216229
#	238720
#	269442
#	304360
#
# Disc length: 4580 seconds
# Revision: 0
# Processed by: cddbd v1.5.2PL0 Copyright (c) Steve Scherf et al.
# Submitted via: dBpowerAMP V12.0
#
DISCID=a811e20b
DTITLE=Haruki Murakami - Die Pilgerjahre des farblosen Herrn Tazaki CD5
DYEAR=1900
DGENRE=
TTITLE0=052
TTITLE1=053
TTITLE2=054
TTITLE3=055
TTITLE4=056
TTITLE5=057
TTITLE6=058
TTITLE7=059
TTITLE8=060
TTITLE9=061
TTITLE10=062
EXTD=
EXTT0=
EXTT1=
EXTT2=
EXTT3=
EXTT4=
EXTT5=
EXTT6=
EXTT7=
EXTT8=
EXTT9=
EXTT10=
PLAYORDER=
